HIERARCHY
ROOT Hips
{
    OFFSET 0.000000 0.000000 0.000000
    CHANNELS 6 Xposition Yposition Zposition Zrotation Xrotation Yrotation
    JOINT Spine
    {
        OFFSET -0.000000 14.590730 0.000000
        CHANNELS 3 Zrotation Xrotation Yrotation
        JOINT Spine1
        {
            OFFSET -0.000000 36.763706 0.000000
            CHANNELS 3 Zrotation Xrotation Yrotation
            JOINT Neck
            {
                OFFSET -0.000000 36.612724 3.328429
                CHANNELS 3 Zrotation Xrotation Yrotation
                JOINT Head
                {
                    OFFSET -0.000000 24.911001 -3.558714
                    CHANNELS 3 Zrotation Xrotation Yrotation
                    End Site
                    {
                        OFFSET -0.000000 35.587143 0.000000
                    }
                }
            }
            JOINT LeftShoulder
            {
                OFFSET 7.070989 33.528889 -0.326312
                CHANNELS 3 Zrotation Xrotation Yrotation
                JOINT LeftArm
                {
                    OFFSET 20.537132 0.000000 0.000000
                    CHANNELS 3 Zrotation Xrotation Yrotation
                    JOINT LeftForeArm
                    {
                        OFFSET 58.337479 0.000000 0.000000
                        CHANNELS 3 Zrotation Xrotation Yrotation
                        JOINT LeftHand
                        {
                            OFFSET 49.531006 0.000000 0.000000
                            CHANNELS 3 Zrotation Xrotation Yrotation
                            End Site
                            {
                                OFFSET 26.690357 0.000000 0.000000
                            }
                        }
                    }
                }
            }
            JOINT RightShoulder
            {
                OFFSET -7.137656 33.528889 -0.326312
                CHANNELS 3 Zrotation Xrotation Yrotation
                JOINT RightArm
                {
                    OFFSET -20.537132 0.000000 0.000000
                    CHANNELS 3 Zrotation Xrotation Yrotation
                    JOINT RightForeArm
                    {
                        OFFSET -58.337479 0.000000 0.000000
                        CHANNELS 3 Zrotation Xrotation Yrotation
                        JOINT RightHand
                        {
                            OFFSET -49.531006 0.000000 0.000000
                            CHANNELS 3 Zrotation Xrotation Yrotation
                            End Site
                            {
                                OFFSET -26.690357 0.000000 0.000000
                            }
                        }
                    }
                }
            }
        }
    }
    JOINT LeftUpLeg
    {
        OFFSET 17.793571 0.000000 0.000000
        CHANNELS 3 Zrotation Xrotation Yrotation
        JOINT LeftLeg
        {
            OFFSET -0.000000 -82.654472 0.000000
            CHANNELS 3 Zrotation Xrotation Yrotation
            JOINT LeftFoot
            {
                OFFSET -0.000000 -60.126030 0.000000
                CHANNELS 3 Zrotation Xrotation Yrotation
                JOINT LeftToeBase
                {
                    OFFSET -0.000000 -11.565822 26.690357
                    CHANNELS 3 Zrotation Xrotation Yrotation
                    End Site
                    {
                        OFFSET -0.000000 0.000000 7.117429
                    }
                }
            }
        }
    }
    JOINT RightUpLeg
    {
        OFFSET -17.793571 0.000000 0.000000
        CHANNELS 3 Zrotation Xrotation Yrotation
        JOINT RightLeg
        {
            OFFSET -0.000000 -82.654472 0.000000
            CHANNELS 3 Zrotation Xrotation Yrotation
            JOINT RightFoot
            {
                OFFSET -0.000000 -60.126030 0.000000
                CHANNELS 3 Zrotation Xrotation Yrotation
                JOINT RightToeBase
                {
                    OFFSET -0.000000 -11.565822 26.690357
                    CHANNELS 3 Zrotation Xrotation Yrotation
                    End Site
                    {
                        OFFSET -0.000000 0.000000 7.117429
                    }
                }
            }
        }
    }
}
MOTION
Frames:    13
Frame Time:    0.008333
-18.005243    164.900299    -45.995544    0.541025    4.117999    -4.894505    1.463947    -11.956143    0.153307    -3.054203    3.708822    0.083157    3.511032    12.026785    3.901117    4.210456    23.476271    3.642457    0.113984    10.861533    -9.076777    -20.746124    37.085648    -42.926643    -52.038719    -4.087539    -78.057243    -54.629368    -47.902851    5.148814    0.939327    12.276175    3.576773    22.524338    20.224936    53.171677    66.005821    7.499961    48.700752    78.410156    -22.518545    4.976060    1.345452    -5.555612    -1.411492    -6.557253    8.167386    -1.181665    1.678993    -5.939965    19.616787    0.000000    0.000000    0.000000    0.114735    -9.155676    -1.184829    6.459342    14.838852    -3.133728    -2.225864    -8.409394    -16.423817    0.000000    0.000000    0.000000    
-17.968739    164.896286    -46.002949    0.530390    4.120576    -4.881904    1.480952    -11.945485    0.154951    -3.072918    3.719719    0.093176    3.523862    12.046808    3.900077    4.213998    23.419035    3.643543    0.127595    10.876277    -9.081545    -20.724577    37.104961    -42.954811    -52.025543    -4.136562    -78.078789    -54.653072    -47.936966    5.140097    0.953705    12.269410    3.566930    22.559284    20.248537    53.144352    66.002457    7.471702    48.713112    78.398476    -22.561310    4.965388    1.344246    -5.602701    -1.432165    -6.564122    8.255183    -1.207106    1.698302    -5.975963    19.645073    0.000000    0.000000    0.000000    0.110939    -9.180876    -1.241989    6.441595    14.892965    -3.085408    -2.185165    -8.427534    -16.430372    0.000000    0.000000    0.000000    
-17.926174    164.891617    -46.015110    0.519837    4.129580    -4.866831    1.490052    -11.939467    0.155825    -3.066657    3.735911    0.093926    3.537134    12.047989    3.899464    4.184526    23.383944    3.645792    0.123770    10.862031    -9.092102    -20.733593    37.134815    -42.946625    -52.031525    -4.176296    -78.094398    -54.677586    -47.980190    5.142586    0.953951    12.273637    3.549479    22.560484    20.277136    53.143536    66.009987    7.418865    48.756413    78.410980    -22.639034    4.978296    1.338369    -5.659700    -1.459708    -6.567199    8.344209    -1.202607    1.718329    -6.012687    19.649885    0.000000    0.000000    0.000000    0.102812    -9.216663    -1.292368    6.438723    14.942751    -3.116904    -2.169704    -8.435969    -16.377468    0.000000    0.000000    0.000000    
-17.880989    164.886765    -46.031410    0.513747    4.141508    -4.851447    1.494286    -11.931284    0.156160    -3.059950    3.746903    0.099736    3.545788    12.041459    3.895357    4.169717    23.364017    3.642701    0.120075    10.874381    -9.100667    -20.732431    37.108559    -42.960552    -52.061565    -4.179459    -78.064102    -54.662716    -47.989571    5.152201    0.951846    12.275978    3.530066    22.585262    20.298840    53.135155    66.017426    7.388601    48.756542    78.403358    -22.692142    4.952403    1.323627    -5.718960    -1.462541    -6.563332    8.424952    -1.197188    1.751900    -6.032204    19.629944    0.000000    0.000000    0.000000    0.089694    -9.261051    -1.334987    6.432565    15.002914    -3.115176    -2.135011    -8.452412    -16.363281    0.000000    0.000000    0.000000    
-17.834755    164.879425    -46.052067    0.502533    4.155252    -4.839668    1.502470    -11.915132    0.156800    -3.050428    3.746596    0.102455    3.536897    12.044356    3.898355    4.178410    23.334742    3.646857    0.119095    10.879727    -9.103483    -20.744120    37.098053    -42.968433    -52.089825    -4.182290    -78.035782    -54.632385    -47.995289    5.153991    0.950856    12.264729    3.525848    22.602436    20.343933    53.100372    66.014549    7.311558    48.827873    78.533539    -22.749458    5.032053    1.317745    -5.784338    -1.464936    -6.570375    8.518766    -1.210828    1.768662    -6.071871    19.654743    0.000000    0.000000    0.000000    0.079028    -9.316858    -1.363052    6.438119    15.079736    -3.113229    -2.107152    -8.465955    -16.361767    0.000000    0.000000    0.000000    
-17.783752    164.872452    -46.074821    0.500048    4.165807    -4.834173    1.499389    -11.898617    0.166152    -3.035836    3.755079    0.108433    3.532550    12.048446    3.892032    4.184841    23.295616    3.641685    0.116221    10.876575    -9.115746    -20.757185    37.095539    -42.970524    -52.106289    -4.195651    -78.021729    -54.614292    -48.015614    5.177260    0.953899    12.255803    3.503215    22.613777    20.374861    53.086845    66.013725    7.277389    48.850563    78.532242    -22.761515    5.081278    1.298629    -5.840970    -1.472712    -6.564374    8.597535    -1.206378    1.789103    -6.097389    19.644190    0.000000    0.000000    0.000000    0.058851    -9.374041    -1.369407    6.447537    15.158402    -3.147068    -2.089111    -8.485320    -16.343580    0.000000    0.000000    0.000000    
-17.728952    164.866272    -46.099438    0.494881    4.172420    -4.824225    1.502039    -11.868017    0.166024    -3.027822    3.751205    0.107191    3.515550    12.054818    3.890674    4.203587    23.261814    3.641276    0.107849    10.878263    -9.109648    -20.754585    37.106190    -42.985783    -52.118561    -4.218839    -78.018913    -54.581112    -48.046379    5.201384    0.954801    12.247410    3.497787    22.633207    20.408821    53.055222    66.001900    7.232949    48.896927    78.589409    -22.835506    5.071180    1.281201    -5.899697    -1.462218    -6.564839    8.683203    -1.189220    1.817550    -6.118446    19.613369    0.000000    0.000000    0.000000    0.039279    -9.437552    -1.428002    6.443729    15.266702    -3.118625    -2.049203    -8.513179    -16.344635    0.000000    0.000000    0.000000    
-17.669943    164.859390    -46.124489    0.495533    4.174404    -4.820101    1.509954    -11.839172    0.156571    -3.037954    3.760709    0.114737    3.510080    12.069560    3.896985    4.209752    23.207098    3.650315    0.113837    10.886445    -9.095964    -20.762022    37.100220    -43.000244    -52.116940    -4.229345    -78.013145    -54.538757    -48.050598    5.212017    0.958616    12.245293    3.507662    22.652596    20.433420    53.024513    66.006409    7.175059    48.943695    78.643631    -22.904455    5.099102    1.257879    -5.950691    -1.465516    -6.567267    8.763860    -1.172842    1.838810    -6.146004    19.598289    0.000000    0.000000    0.000000    0.013807    -9.496277    -1.455679    6.444459    15.366979    -3.129364    -2.018066    -8.541423    -16.332859    0.000000    0.000000    0.000000    
-17.615990    164.852005    -46.153168    0.494538    4.175825    -4.812303    1.504959    -11.797124    0.165388    -3.031126    3.751405    0.107183    3.511843    12.096033    3.893548    4.211792    23.156088    3.649409    0.113912    10.892282    -9.093505    -20.768835    37.097591    -43.005157    -52.109840    -4.243173    -77.998619    -54.578213    -48.031925    5.169937    0.965277    12.243532    3.498131    22.665628    20.480886    53.005775    65.988579    7.122120    48.995113    78.639481    -22.966694    5.120537    1.241627    -6.015212    -1.447081    -6.629728    8.966604    -1.167691    1.975704    -6.301428    19.647455    0.000000    0.000000    0.000000    -0.008197    -9.558685    -1.496047    6.443353    15.474236    -3.108815    -1.988383    -8.559700    -16.338408    0.000000    0.000000    0.000000    
-17.559750    164.842072    -46.187592    0.489640    4.180775    -4.808403    1.504520    -11.754662    0.164781    -3.025612    3.744961    0.107778    3.517329    12.111621    3.895656    4.212487    23.106079    3.653844    0.108008    10.896286    -9.089315    -20.771805    37.123058    -42.999043    -52.086487    -4.282247    -78.037895    -54.616673    -48.065659    5.168442    0.971065    12.246594    3.487613    22.680588    20.504744    52.996597    65.968468    7.079665    49.022186    78.678581    -22.989428    5.149938    1.226204    -6.084859    -1.417321    -6.628301    9.082230    -1.172070    2.016213    -6.333245    19.603968    0.000000    0.000000    0.000000    -0.025440    -9.630778    -1.522317    6.444418    15.592231    -3.103765    -1.977253    -8.586869    -16.345188    0.000000    0.000000    0.000000    
-17.497019    164.834396    -46.219692    0.490210    4.183662    -4.803046    1.510468    -11.719636    0.164927    -3.039266    3.749829    0.108504    3.510271    12.111338    3.900257    4.238544    23.079668    3.658280    0.109343    10.899943    -9.080241    -20.765751    37.147198    -43.010181    -52.075657    -4.339853    -78.066513    -54.659119    -48.110844    5.154486    0.980706    12.259039    3.483069    22.709276    20.506247    52.991459    65.981277    7.038981    49.016350    78.620888    -23.015162    5.175987    1.204092    -6.149575    -1.406508    -6.635085    9.185060    -1.163410    2.029088    -6.365394    19.589491    0.000000    0.000000    0.000000    -0.052368    -9.715030    -1.603411    6.429136    15.755153    -3.087311    -1.926635    -8.638366    -16.311474    0.000000    0.000000    0.000000    
-17.436193    164.826111    -46.252159    0.488546    4.179699    -4.800067    1.513867    -11.678926    0.164734    -3.054225    3.762978    0.111493    3.536107    12.126651    3.900256    4.225202    23.020126    3.660982    0.120436    10.887800    -9.076416    -20.782585    37.150795    -43.006935    -52.080189    -4.358203    -78.053024    -54.646713    -48.131817    5.195993    0.993719    12.271032    3.470607    22.725412    20.520288    53.001305    65.978615    6.984149    49.019310    78.622726    -23.023773    5.232569    1.185877    -6.204183    -1.366796    -6.644125    9.281372    -1.185913    2.076922    -6.381654    19.584854    0.000000    0.000000    0.000000    -0.076432    -9.784909    -1.643319    6.427040    15.882132    -3.090658    -1.891621    -8.661209    -16.285185    0.000000    0.000000    0.000000    
-17.374128    164.815781    -46.293240    0.488341    4.188782    -4.795105    1.517116    -11.647476    0.164645    -3.070526    3.777175    0.111452    3.562602    12.143912    3.890028    4.211177    22.960213    3.653151    0.129447    10.877977    -9.060937    -20.779493    37.146584    -43.026775    -52.116367    -4.376409    -78.027794    -54.590828    -48.163242    5.221315    1.003457    12.275595    3.460252    22.748877    20.543427    53.016254    65.974228    6.948482    48.993725    78.541771    -23.026400    5.249800    1.163789    -6.278943    -1.328861    -6.644264    9.390836    -1.203426    2.104370    -6.412868    19.569288    0.000000    0.000000    0.000000    -0.096147    -9.880066    -1.644336    6.428276    16.026619    -3.149747    -1.866098    -8.688728    -16.266190    0.000000    0.000000    0.000000    
